# xmcd
#
# Track frame offsets:
#	150
#	9187
#	19002
#	31375
#	43552
#	54915
#	67887
#	81312
#	90800
#	100362
#	115597
#	128640
#	141127
#	152837
#	163765
#	174712
#
# Disc length: 2510
#
# Revision: 2
# Processed by: cddbd v1.5.1PL0 Copyright (c) Steve Scherf et al.
# Submitted via: EasyCDDAExtractor 4.6.0.1
# Normalized: r0:DSETVAR1,TDELIM( - ),TSWAP
#
DISCID=ba09cc10
DTITLE=Various Artist - 16 All-Time Country Greats 4
DYEAR=1900
DGENRE=Country
TTITLE0=Les Paul And Mary Ford - Johnny Is The Boy For Me
TTITLE1=Jim Reeves - Snowflake
TTITLE2=Marty Robbins - Tonight Carmen
TTITLE3=George Jones - Take Me
TTITLE4=Johnny Cash - Big River
TTITLE5=Boxcar Willie - 't' For Texas
TTITLE6=Jerry Lee Lewis - The Ballad Of Billy Joe
TTITLE7=Tommy Collins - Big Dummy
TTITLE8=Lester Flatt And Earl Scruggs - Foggy Mountain Breakdown
TTITLE9=Elvis Presley - That's When Your Heartaches Begin
TTITLE10=Gene Autry - Under Fiesta Stars
TTITLE11=Frankie Lane - High Noon
TTITLE12=Slim Whitman - Secret Love
TTITLE13=Carl Perkins - That's Right
TTITLE14=Patsy Cline - I Can See An Angel
TTITLE15=Lefty Frizzell - Saginaw Michigan
EXTD=
EXTT0=
EXTT1=
EXTT2=
EXTT3=
EXTT4=
EXTT5=
EXTT6=
EXTT7=
EXTT8=
EXTT9=
EXTT10=
EXTT11=
EXTT12=
EXTT13=
EXTT14=
EXTT15=
PLAYORDER=
